<svg width="512" height="512" viewBox="0 0 512 512" fill="none" xmlns="http://www.w3.org/2000/svg">
  <rect width="512" height="512" rx="56" fill="#39A9F4"/>
  <path d="M100 175C92 175 86 181 86 189C86 197 92 203 100 203H131L182 391C184 399 191 404 199 404H365C373 404 380 399 382 391L414 273C417 262 408 251 397 251H201L190 203H337C343 203 349 199 351 194L383 128C388 119 381 108 371 108H167C159 108 152 112 148 119L132 147H100V175Z" fill="white"/>
  <path d="M221 104C227 82 258 70 281 78L446 134C459 138 463 154 454 162L294 248C289 251 282 252 277 251L153 224C140 221 136 205 146 198L221 149V104Z" fill="white"/>
  <circle cx="218" cy="438" r="41" fill="white"/>
  <circle cx="345" cy="438" r="41" fill="white"/>
  <circle cx="218" cy="438" r="16" fill="#39A9F4"/>
  <circle cx="345" cy="438" r="16" fill="#39A9F4"/>
  <path d="M172 165C178 160 187 161 192 168L213 197C218 204 216 214 208 218C201 223 191 220 187 212L168 181C164 174 166 168 172 165Z" fill="#39A9F4"/>
  <path d="M179 164L217 132C223 127 232 127 238 132C244 137 244 147 238 152L200 184L179 164Z" fill="#39A9F4"/>
</svg>
