<svg width="64" height="64" viewBox="0 0 64 64" fill="none" xmlns="http://www.w3.org/2000/svg">
  <rect width="64" height="64" rx="12" fill="#39A9F4"/>
  <path d="M12 21C10.9 21 10 21.9 10 23C10 24.1 10.9 25 12 25H16L21 41C21.5 42.6 22.9 43.7 24.6 43.7H44.1C45.8 43.7 47.3 42.6 47.7 41L50.6 30.8C51.1 29.1 49.8 27.5 48.1 27.5H25.2L24 23.5H38.5C39.8 23.5 40.9 22.8 41.5 21.7L45 15.6C45.8 14.2 44.8 12.5 43.2 12.5H20.6C19.3 12.5 18 13.2 17.4 14.3L15.8 17H12V21Z" fill="white"/>
  <path d="M28 10.5C29.2 7.4 33 6 35.9 7L55.1 13.3C56.7 13.8 57 15.9 55.6 16.9L37 25.9C36 26.4 34.8 26.5 33.8 26.2L19.7 22.1C18.1 21.6 17.8 19.5 19.1 18.5L28 13.9V10.5Z" fill="white"/>
  <circle cx="27" cy="49.5" r="4.5" fill="white"/>
  <circle cx="43" cy="49.5" r="4.5" fill="white"/>
  <circle cx="27" cy="49.5" r="1.8" fill="#39A9F4"/>
  <circle cx="43" cy="49.5" r="1.8" fill="#39A9F4"/>
</svg>
