<svg width="160" height="160" viewBox="0 0 160 160" fill="none" xmlns="http://www.w3.org/2000/svg">
  <rect width="160" height="160" rx="80" fill="url(#bg)"/>
  <circle cx="80" cy="62" r="30" fill="#FFD8B8"/>
  <path d="M48 58C48 39.2223 63.2223 24 82 24C100.778 24 116 39.2223 116 58V66H48V58Z" fill="#14532D"/>
  <path d="M40 124C40 105.222 55.2223 90 74 90H86C104.778 90 120 105.222 120 124V136H40V124Z" fill="#0F766E"/>
  <rect x="54" y="106" width="52" height="18" rx="9" fill="#F8FAFC"/>
  <path d="M66 115H94" stroke="#16A34A" stroke-width="6" stroke-linecap="round"/>
  <circle cx="112" cy="46" r="14" fill="#F8FAFC"/>
  <path d="M112 38V54M104 46H120" stroke="#16A34A" stroke-width="6" stroke-linecap="round"/>
  <defs>
    <linearGradient id="bg" x1="16" y1="20" x2="138" y2="144" gradientUnits="userSpaceOnUse">
      <stop stop-color="#DCFCE7"/>
      <stop offset="1" stop-color="#BFDBFE"/>
    </linearGradient>
  </defs>
</svg>
